<svg xmlns="http://www.w3.org/2000/svg" viewBox="0 0 800 500">
  <defs>
    <linearGradient id="bg" x1="0" y1="0" x2="1" y2="1">
      <stop offset="0" stop-color="#0f766e"/>
      <stop offset="1" stop-color="#134e4a"/>
    </linearGradient>
    <linearGradient id="pill" x1="0" y1="0" x2="1" y2="1">
      <stop offset="0" stop-color="#f0fdfa"/>
      <stop offset="1" stop-color="#99f6e4"/>
    </linearGradient>
  </defs>
  <rect width="800" height="500" fill="url(#bg)"/>
  <g opacity="0.08" fill="#ffffff">
    <circle cx="90" cy="80" r="60"/>
    <circle cx="720" cy="420" r="90"/>
    <circle cx="680" cy="90" r="35"/>
  </g>
  <g transform="translate(400,210)">
    <rect x="-70" y="-25" width="140" height="50" rx="25" fill="url(#pill)" transform="rotate(-30)"/>
    <line x1="-21.6" y1="-12.5" x2="21.6" y2="12.5" stroke="#0f766e" stroke-width="4" transform="rotate(0)" opacity="0"/>
    <line x1="0" y1="0" x2="0" y2="0" stroke="#0f766e"/>
    <rect x="-4" y="-42" width="8" height="84" fill="#0f766e" transform="rotate(-30)" opacity="0.35"/>
    <g transform="translate(120,30)">
      <rect x="-28" y="-80" width="56" height="160" rx="10" fill="#ffffff" opacity="0.95"/>
      <rect x="-80" y="-28" width="160" height="56" rx="10" fill="#ffffff" opacity="0.95"/>
    </g>
    <g transform="translate(-140,40)" fill="#ffffff" opacity="0.9">
      <circle cx="0" cy="0" r="34" fill="none" stroke="#ffffff" stroke-width="8"/>
      <path d="M -12 8 Q 0 -18 12 8" fill="none" stroke="#ffffff" stroke-width="8" stroke-linecap="round"/>
    </g>
  </g>
  <text x="400" y="420" text-anchor="middle" font-family="Segoe UI, Arial, sans-serif" font-size="34" font-weight="600" fill="#ffffff">Pharmacy Information System</text>
  <text x="400" y="456" text-anchor="middle" font-family="Segoe UI, Arial, sans-serif" font-size="20" fill="#99f6e4">PSI · HTML · CSS · JavaScript</text>
</svg>
